<?xml version="1.0" encoding="utf-8"?>
<!-- Generator: Adobe Illustrator 22.0.1, SVG Export Plug-In . SVG Version: 6.00 Build 0)  -->
<svg version="1.1" id="Calque_1" xmlns="http://www.w3.org/2000/svg" xmlns:xlink="http://www.w3.org/1999/xlink" x="0px" y="0px"
	 viewBox="0 0 432 432" style="enable-background:new 0 0 432 432;" xml:space="preserve">
<style type="text/css">
	.st0{fill:#B3A6AD;}
	.st1{fill:#B6B155;}
	.st2{fill:#990033;}
	.st3{fill:#660A1E;}
	.st4{fill:#A7A6AA;}
	.st5{fill:#EF798A;}
	.st6{fill:#FFB2B2;}
	.st7{fill:#A70808;}
	.st8{fill:#DF4646;}
	.st9{fill:#FF7878;}
	.st10{fill:#F2A297;}
	.st11{fill:#BA1717;}
	.st12{fill:#543A3C;}
	.st13{fill:#CA1542;}
	.st14{fill:#E74C6E;}
	.st15{fill:#006837;}
	.st16{fill:#004924;}
	.st17{fill:#D33757;}
	.st18{fill:#E06581;}
	.st19{fill:#014724;}
	.st20{fill:#E14666;}
	.st21{fill:#ABDFD3;}
	.st22{fill:#C5EFE4;}
	.st23{fill:#DC4160;}
	.st24{fill:#A888AD;}
	.st25{fill:#B99BBF;}
	.st26{fill:#F8A362;}
	.st27{fill:#F9B587;}
	.st28{fill:#F2F2F2;}
	.st29{fill:#FDFFFE;}
	.st30{fill:#F2D668;}
	.st31{fill:#F9E4A5;}
	.st32{fill:#F5A6DF;}
	.st33{fill:#F4CEEB;}
	.st34{fill:#CCCCCC;}
	.st35{fill:#FBB03B;}
	.st36{fill:#FFFFFF;}
	.st37{fill:#ECCDD2;}
	.st38{fill:#8AD7AB;}
	.st39{fill:#8FC8E2;}
	.st40{fill:#D3CE94;}
	.st41{fill:#F9CFCF;}
	.st42{fill:#EDE9C3;}
	.st43{fill:#9BD6EA;}
	.st44{fill:#F8D9C4;}
	.st45{fill:#EB678B;}
	.st46{fill:#A5394C;}
	.st47{fill:#DD726C;}
	.st48{fill:#E5847A;}
	.st49{fill:#EF8A7F;}
	.st50{fill:#3CBC91;}
	.st51{fill:#8CC63F;}
	.st52{fill:#B78D5C;}
	.st53{fill:#2A2A2B;}
	.st54{fill:#EBCEC6;}
	.st55{fill:#F49090;}
	.st56{fill:#B3D8E8;}
	.st57{fill:#EFE6E4;}
	.st58{fill:#FBD8E3;}
	.st59{fill:#E48397;}
	.st60{fill:#B2E6F9;}
	.st61{fill:#42210B;}
	.st62{fill:#E0E0E0;}
	.st63{fill:#9D6D47;}
	.st64{fill:#EFD1B4;}
	.st65{fill:#0071BC;}
	.st66{fill:#679CBA;}
	.st67{fill:#DBDCDD;}
	.st68{fill:#DDB28E;}
	.st69{fill:#C69C6D;}
	.st70{fill:#603813;}
	.st71{fill:#8C6239;}
	.st72{fill:#E9EAE4;}
	.st73{fill:#F7931E;}
	.st74{fill:#754C24;}
	.st75{fill:#A67C52;}
	.st76{fill:#9E1E28;}
	.st77{fill:#F15A24;}
	.st78{fill:#E04819;}
	.st79{fill:#009245;}
	.st80{fill:#00552B;}
	.st81{fill:#84821B;}
	.st82{fill:#CD271F;}
	.st83{fill:#BB8130;}
	.st84{fill:#BBBABF;}
	.st85{fill:#E0E0E2;}
	.st86{fill:#C79359;}
	.st87{fill:#BA844F;}
	.st88{fill:#29ABE2;}
	.st89{fill:#EEB752;}
	.st90{fill:#A8B0B2;}
	.st91{fill:#035684;}
	.st92{fill:#EFBF73;}
	.st93{fill:#D3A272;}
	.st94{fill:#C3C8C9;}
	.st95{fill:#EBDCC9;}
	.st96{fill:#EAD696;}
	.st97{fill:#E57ACC;}
	.st98{fill:#8D5F96;}
	.st99{fill:#FFD9E4;}
	.st100{fill:#60BA84;}
	.st101{fill:#CCEDE5;}
	.st102{fill:#E8E8E8;}
	.st103{fill:#F9D2D2;}
	.st104{fill:#B9B9BA;}
	.st105{fill:#939393;}
	.st106{fill:#62612A;}
	.st107{fill:#79484E;}
	.st108{fill:#C2BE5C;}
	.st109{fill:#F1C3A2;}
	.st110{fill:#B2625C;}
	.st111{fill:#E1AE9D;}
	.st112{fill:#7597A0;}
	.st113{fill:#F2DBD5;}
	.st114{fill:#B27C62;}
	.st115{fill:#E6E6E6;}
	.st116{fill:#AF8864;}
	.st117{fill:#F1E9DF;}
	.st118{fill:#9E6A56;}
	.st119{fill:#2E3192;}
	.st120{fill:#EAEAEA;}
	.st121{fill:#1B1464;}
	.st122{fill:#EAE5E6;}
	.st123{fill:#7F9BEA;}
	.st124{fill:#EEBCC5;}
	.st125{fill:#DB8E98;}
	.st126{fill:#B58187;}
	.st127{fill:#80424C;}
	.st128{fill:#F3EED0;}
	.st129{fill:#CCD8B0;}
	.st130{fill:#46653B;}
	.st131{fill:#345129;}
	.st132{fill:#C9A6AC;}
	.st133{fill:#D6B6BA;}
	.st134{fill:#DE7139;}
	.st135{fill:#F2CB56;}
	.st136{fill:#DE3A55;}
	.st137{fill:#CD9586;}
	.st138{fill:#B47468;}
	.st139{fill:#F5DCD8;}
	.st140{fill:#C4BCBF;}
	.st141{fill:#E0B182;}
	.st142{fill:#9B6B61;}
	.st143{fill:#DBB89B;}
	.st144{fill:#DED2D3;}
	.st145{fill:#7D6364;}
	.st146{fill:#F1A3A1;}
	.st147{fill:#B3B3B3;}
	.st148{fill:#F9CEBE;}
	.st149{fill:#142738;}
	.st150{fill:#911928;}
	.st151{fill:#A32F4E;}
	.st152{fill:#7A0118;}
	.st153{fill:#DAE576;}
	.st154{fill:#E87F38;}
	.st155{fill:#F47621;}
	.st156{fill:#BC5B1B;}
	.st157{fill:#E6EF6A;}
	.st158{fill:#7C0101;}
	.st159{fill:#6DA84A;}
	.st160{fill:#83AF6E;}
	.st161{fill:#39B54A;}
	.st162{fill:#812791;}
	.st163{fill:#FC540D;}
	.st164{fill:#DD4410;}
	.st165{fill:#D3CE6A;}
	.st166{fill:#F2C8AD;}
	.st167{fill:#EFB58E;}
	.st168{fill:#F27622;}
	.st169{fill:#8DA34F;}
	.st170{fill:#ACBF77;}
	.st171{fill:#D6C188;}
	.st172{fill:#E5CED4;}
	.st173{fill:#15104F;}
	.st174{fill:#E5E3E3;}
</style>
<path class="st30" d="M247.5,203.2c0-1.2,0-3-0.1-4.9c-0.1-4.3-0.6-8.5-1.1-12.8c-0.2-1.5-0.2-3.1-0.3-4.6c-0.1-1.9-0.1-3.7-0.1-5.6
	c-0.1-1.9-0.1-2.1-1.5-3.4c-1.5-1.4-3-2.6-4.5-4c-2-1.8-3.9-3.7-5.9-5.5c-1.2-1.1-2.2-2.4-3-3.8c-0.7-1-1.2-2.1-1.4-3.3
	c-0.1-0.8,0.1-1.5,0.6-2.1c0.4-0.5,0.9-1,1.5-1.3c2.1-1.1,4.3-1.3,6.5-0.1c0.8,0.4,1.6,0.9,2.4,1.5c2.3,1.6,4.3,3.5,6.2,5.5
	c1.2,1.3,2.5,2.7,3.7,4c1,1,2,1.9,3,2.8c1,0.9,2.1,1.5,3.3,1.9c1.3,0.4,2.6,0.8,3.9,1.2c3.7,1,6.4,3.3,8.5,6.4
	c1.6,2.5,2.7,5.2,3.7,8c1.3,3.9,2.4,7.9,2.9,12.1c0.3,1.9,0.4,3.9,0.6,5.8c0.2,3,0.2,5.9,0.2,8.9c0,3.7-0.4,7.4-0.9,11.1
	c-0.5,3.3-1.1,6.6-2,9.8c-2,6.8-4.7,13.2-8.7,19c-2.6,3.8-5.6,7.2-9,10.3c-4.6,4.3-9.7,8-15,11.2c-1.1,0.6-2.2,1.2-3.3,1.8
	c-4.6,2.4-9.4,4.2-14.2,5.9c-2,0.7-4.1,0.9-6.2,0.8c-2.2-0.1-4-1-5.5-2.6c-0.4-0.5-0.8-1-1.2-1.5c-0.8-1.2-0.8-2.1,0.1-3.3
	c0.8-1.1,1.7-2,2.7-2.8c1.4-1.1,2.7-2.2,4.1-3.3c5.1-3.9,9.8-8.2,14-13c3.1-3.5,5.6-7.4,7.8-11.6c1.8-3.5,3.4-7,4.6-10.7
	c0.5-1.6,0.9-3.2,1.2-4.8c0.6-2.8,1.1-5.6,1.5-8.4c0.3-1.8,0.4-3.7,0.4-5.5C247.4,209.3,247.4,206.6,247.5,203.2z"/>
<path class="st151" d="M256,333.1c-0.4,0-0.6,0-0.9,0c-1.2-0.1-2.2-0.5-3.1-1.3c-1-0.9-1.8-2-2.2-3.4c-0.7-2.2-0.1-4.3,1.7-5.7
	c0.6-0.4,1.2-0.8,1.8-1.1c0.4-0.2,0.7-0.4,0.9-0.9c0.3-0.8,0.9-1.4,1.5-1.9c1.7-1.4,3.9-1.4,5.7,0c0.4,0.3,0.8,0.7,1.3,1.1
	c2.6-3.5,5.9-3.4,8.5-0.7c0.1-0.2,0.3-0.4,0.4-0.6c1.3-1.9,3.1-2.8,5.4-2.7c1.1,0.1,2,0.5,2.8,1.2c0.6,0.6,1.2,1.2,1.7,1.9
	c0.3,0.3,0.5,0.5,0.9,0.4c2-0.1,3.9,1.2,4.6,3.1c0.5,1.3,0.3,2.6-0.5,3.7c-0.4,0.5-0.8,1-1.2,1.4c0.3,0.6,0.6,1.2,0.8,1.7
	c0.7,1.7,0.5,3.4-0.7,4.8c-0.5,0.7-1.2,1.4-1.9,2c-0.6,0.5-0.8,1.1-0.6,1.8c0.3,1.2,0.5,2.5,0.3,3.8c-0.3,1.7-1.1,3.1-2.5,4.1
	c-0.8,0.6-1.7,1.1-2.6,1.7c0.1,0.4,0.2,0.8,0.3,1.2c0.2,0.9,0.4,1.9,0.3,2.8c-0.2,3.9-4.8,5.5-7.2,4.1c-0.7-0.4-1.4-0.8-1.8-1.5
	c-0.4-0.6-1-1.2-1.4-1.9c-0.3-0.4-0.6-0.5-1-0.4c-1.2,0.2-2.4,0.1-3.5-0.3c-2.7-1.1-4.3-3.9-3.8-6.8c0.1-0.6,0.3-1.1,0.4-1.8
	c-2.5-0.1-4.1-1.5-5.1-3.6C254.5,337.3,255,335.2,256,333.1z"/>
<g>
	<path class="st152" d="M177.5,174c0.9-0.8,1.9-1.3,3-1.7c1.3-0.5,2.6-0.7,4-0.4c2.6,0.4,4,2.3,4.4,4.7c0.2,1.5,0,3-0.6,4.4
		c-1.8,4.6-5,7.7-9.9,8.9c-1.4,0.4-2.9,0.4-4.3,0.3c-1.7-0.1-3.3-0.5-4.8-1.1c-3.1-1.3-5.2-3.6-6.1-6.9c-0.7-2.6-0.9-5.2-0.2-7.9
		c0.3-0.9,0.6-1.8,1.2-2.6c1.1-1.5,2.6-2.2,4.3-2.5c3.6-0.6,7.2,1.3,8.8,4.5C177.3,173.6,177.4,173.8,177.5,174z"/>
	<path class="st152" d="M204.6,186.1c0.8-0.9,1.8-1.4,2.9-1.9c1.2-0.6,2.6-0.8,3.9-0.7c2.7,0.3,4.2,2,4.6,4.4c0.3,1.5,0.1,3-0.3,4.4
		c-1.6,4.7-4.6,8-9.3,9.5c-1.4,0.4-2.8,0.5-4.3,0.5c-1.7,0-3.3-0.3-4.9-0.8c-3.2-1.1-5.4-3.3-6.5-6.5c-0.9-2.6-1.3-5.2-0.7-7.8
		c0.2-1,0.5-1.9,1-2.7c1-1.5,2.4-2.4,4.1-2.8c3.5-0.8,7.3,0.9,9.1,4C204.4,185.7,204.5,185.9,204.6,186.1z"/>
	<path class="st80" d="M203.7,165.1c0.7,0.1,1.4-0.1,1.9-0.4c0.5-0.3,1-0.7,1.5-1c0.4-0.3,0.7-0.6,1-0.9c1.2-1.2,2.7-2,4.2-2.8
		c0.6-0.3,1.1-0.1,1.2,0.6c0,0.6,0,1.2-0.2,1.7c-1,3.7-4.5,4.8-7,4.4c-0.6-0.1-1.2-0.2-1.8-0.3c0.2,0.4,0.5,0.7,0.9,0.8
		c1.3,0.5,2.6,0.8,3.9,0.3c0.9-0.4,1.9-0.7,2.8-1.1c3.3-1.6,6.7-2.6,10.4-3.2c0.4-0.1,0.9-0.2,1.3-0.2c0.9-0.1,1.3,0.2,1.2,1.1
		c0,0.8-0.1,1.6-0.3,2.4c-0.4,2.4-1.7,4.2-3.6,5.7c-1.8,1.3-3.8,2.1-5.9,2.3c-1.8,0.1-3.4-0.4-5-1.3c-1.1-0.6-2.1-1.5-3.1-2.4
		c-0.5-0.4-1-0.9-1.5-1.3c-0.2-0.1-0.4-0.3-0.6-0.4c0.1,0.2,0.1,0.3,0.2,0.5c0.6,1.8,1.2,3.7,1.4,5.6c0.4,2.7,0.3,5.4-0.3,8
		c-0.3,1.2-0.6,2.5-1,3.7c-0.2,0.7-0.4,0.8-1.1,0.6c-1.5-0.3-1.4-0.8-1.2-1.9c0.6-2.9,0.9-5.9,0.8-8.9c-0.1-2-0.5-4-1.2-6
		c-0.6-1.7-1.3-3.4-2-5.1c-1-2.3-1.8-4.7-2-7.2c0,0,0-0.1-0.1-0.1c-0.1,0.1-0.1,0.1-0.2,0.2c-2.4,2.8-5.3,5-8.6,6.9
		c-2.4,1.4-4.8,3-7.2,4.5c-1,0.6-1.9,1.4-2.8,2.2c-0.6,0.5-1,1-1.3,1.7c-0.1,0.3-0.3,0.5-0.7,0.5c-0.3,0-0.6,0.1-1,0.1
		c-0.2-0.3-0.3-0.6-0.2-1c0.2-0.8,0.5-1.5,1-2.1c0.7-1,1.6-1.8,2.5-2.5c1.7-1.4,3.7-2.6,5.5-3.8c2.3-1.5,4.7-3,6.9-4.6
		c2.3-1.6,4.3-3.5,6.3-5.5c0.3-0.3,0.5-0.5,0.8-0.7c0.3-0.3,0.7-0.7,1.2-0.4c0.5,0.2,0.5,0.7,0.5,1.2c0,0.5,0,1,0.1,1.4
		c0.2,2.9,0.9,5.7,1.9,8.4C203.6,165,203.7,165,203.7,165.1z"/>
</g>
<g>
	<path class="st153" d="M207.9,362.9c-5.7-0.2-12.3-1.9-18.2-5.9c-1.4-1-3-1.8-4.5-2.6c-0.4-0.2-0.9-0.4-1.3-0.5
		c-2.5-0.7-4.9-1.6-7.1-3.1c-3.3-2.2-5.4-5.3-6.2-9.2c-0.8-3.9,0.4-7.2,3.5-9.7c1.4-1.2,3.1-2,4.8-2.7c3.1-1.1,5.9-2.8,8.5-4.8
		c2.7-2.1,5.4-4,8.5-5.4c3.2-1.5,6.5-2.7,10-3.2c2.5-0.3,5.1-0.6,7.7-0.3c4.3,0.5,8.4,1.7,12.1,3.9c3.1,1.9,5.4,4.5,7,7.8
		c0.6,1.2,1.1,2.4,1.6,3.6c0.6,1.4,0.9,2.9,1.2,4.4c0.4,1.9,0.9,3.8,0.9,5.8c0,4.9-1.5,9.3-4.8,13.1c-2.8,3.2-6.3,5.3-10.3,6.7
		C217.4,362.3,213.4,362.9,207.9,362.9z"/>
	<path class="st130" d="M164.3,344c-0.1,2.1-0.3,4.2-0.8,6.3c-1.3,5.1-4.4,8.9-9.1,11.2c-2.7,1.3-5.5,2.1-8.5,2.1
		c-0.5,0-1.1-0.1-1.6-0.2c-0.7-0.2-0.9-0.6-0.6-1.3c0-0.1,0.1-0.1,0.1-0.2c1.1-2.5,1.9-5.2,2.6-7.9c0.9-3.2,2.2-6.3,4.4-8.8
		c0.7-0.8,1.5-1.6,2.4-2.3c2-1.5,4.2-2.7,6.6-3.2c0.8-0.2,1.7-0.3,2.5-0.3c1.2,0,1.6,0.3,1.7,1.5C164.1,341.8,164.2,342.9,164.3,344
		z"/>
	<path class="st63" d="M170.4,342.1c-1.5,0-2.9-0.3-4.2-0.7c-1.7-0.5-3.3-1-4.9-1.6c-2.8-1-5.2-2.7-7.3-4.7
		c-0.7-0.6-1.3-1.3-1.9-1.9c-0.7-0.8-0.6-2.2,0.2-2.9c0.3-0.2,0.6-0.3,1,0c0.2,0.2,0.5,0.4,0.7,0.6c3.9,4.1,8.8,6.4,14.3,7.5
		c1.1,0.2,2.3,0.4,3.5,0.6c0.7,0.1,1.1,0.5,1.3,1.1c0.4,1.5,0,2-1.5,2.1C171,342.1,170.7,342.1,170.4,342.1z"/>
</g>
<g>
	<path class="st80" d="M363.2,113c-0.2-0.2-0.4-0.4-0.6-0.5c-2.9-2.3-6.3-3.3-10-3.1c-3.8,0.1-7.4,1.1-10.9,2.6
		c-1.3,0.5-2.5,1.1-3.7,1.8c0.7-1.4,1.6-2.7,2.7-3.9c3-3.3,6.3-6.2,10.1-8.4c3.1-1.8,6.3-3.2,10-2.9c0.4,0,0.8-0.1,1.1-0.2
		c1-0.5,1.2-1.6,0.6-2.4c-0.2-0.2-0.4-0.4-0.6-0.5c-2.9-2.3-6.3-3.3-10-3.1c-3.8,0.1-7.4,1.1-10.9,2.6c-6.6,2.7-12.1,6.7-16.1,12.6
		c-0.1,0.2-0.2,0.4-0.3,0.8c-1-0.9-1.8-1.6-2.5-2.3c-3.3-3-7-5.2-11.3-6.4c-5.9-1.5-11.6-0.9-17.1,1.4c-2.7,1.1-5.2,2.7-7.3,4.8
		c-1.2,1.2-2.1,2.5-2.5,4.1c-0.4,1.6,0.5,2.6,2.1,2.1c2-0.6,4.1-0.8,6.1-0.8c5.6,0.1,11,1.1,16,3.5c1.3,0.6,2.4,1.3,3.5,2.1
		c-0.1,0-0.1,0-0.2-0.1c-5.9-1.5-11.6-0.9-17.1,1.4c-2.7,1.1-5.2,2.7-7.3,4.8c-1.2,1.2-2.1,2.5-2.5,4.1c-0.4,1.6,0.5,2.6,2.1,2.1
		c2-0.6,4.1-0.8,6.1-0.8c5.6,0.1,11,1.1,16,3.5c3,1.4,5.5,3.4,7.4,6c-2.9-0.3-5.7,0.2-8.5,1.3c-1.7,0.7-3.3,1.7-4.6,3
		c-0.7,0.7-1.3,1.6-1.6,2.6c-0.2,1,0.3,1.6,1.3,1.4c1.3-0.4,2.6-0.5,3.9-0.5c3.5,0,6.9,0.7,10.1,2.2c2.7,1.3,4.7,3.2,5.9,6
		c0.3,0.7,0.6,1.4,1,2.1c0.5,0.9,0.9,1.2,1.9,1.1c1-0.1,1.9-0.2,2.9-0.2c0.6-0.1,1.3-0.1,1.9-0.1c1.7-0.2,2.2-0.7,2.7-2.3
		c0.5-1.8,1.1-3.5,1.7-5.2c0.6-1.6,1.4-3.1,2.5-4.3c1.9-2.1,4-3.9,6.4-5.3c2-1.1,4-2,6.3-1.8c0.2,0,0.5-0.1,0.7-0.2
		c0.6-0.3,0.8-1,0.4-1.5c-0.1-0.1-0.2-0.2-0.4-0.3c-1.8-1.5-4-2.1-6.3-2c-2.4,0.1-4.7,0.7-6.9,1.6c-0.4,0.1-0.7,0.3-1.1,0.5
		c0.2-0.6,0.4-1.3,0.7-1.9c0.9-2.5,2.2-4.8,4-6.8c3-3.3,6.3-6.2,10.1-8.4c3.1-1.8,6.3-3.2,10-2.9c0.4,0,0.8-0.1,1.1-0.2
		C363.7,115,363.9,113.9,363.2,113z"/>
	<g>
		<path class="st26" d="M362.9,200.1c0,1.3,0,2.6,0,3.9c0,1.2-0.1,2.3-0.2,3.4c-0.2,2.8-0.5,5.5-1.1,8.3c-0.3,1.5-0.6,2.9-1,4.4
			c-0.7,2.6-1.5,5.2-2.6,7.7c-0.6,1.3-1.1,2.6-1.8,3.9c-0.7,1.3-1.4,2.5-2.2,3.7c-0.8,1.3-1.8,2.5-2.8,3.7
			c-3.7,4.3-8.1,7.4-13.7,8.9c-3,0.8-5.9,1.2-9,1.2c-3,0-6-0.4-8.9-1.3c-1.4-0.4-2.7-1-4-1.7c-2.1-1.2-4.2-2.4-6-4.2
			c-0.8-0.8-1.7-1.4-2.5-2.1c-0.3-0.3-0.6-0.5-1-0.8c-0.8-0.7-1.5-1.5-2.2-2.3c-2.9-3.3-5-7-6.6-11.2c-0.5-1.4-1-2.9-1.4-4.3
			c-0.4-1.4-0.7-2.8-0.9-4.3c0,0,0-0.1,0-0.1c-0.2-1.6-0.5-3.1-0.6-4.1c-0.1-1.2-0.1-2.4-0.2-3.5c0-1.4-0.1-2.8,0-4.2
			c0-3.5,0.3-6.8,0.7-10.2c0.1-1.1,0.3-2.2,0.5-3.3c0.4-2.5,0.9-4.9,1.6-7.3c0.5-1.8,1-3.5,1.6-5.3c0-0.1,0-0.2,0.1-0.2
			c2.1-6,5.1-11.5,9.3-16.2c0.2-0.2,0.3-0.4,0.5-0.6c1.2-1.3,2.5-2.4,3.9-3.4c0,0,0,0,0,0c2.9-2.1,6.2-3.6,9.9-4.4
			c2.1-0.5,4.3-0.6,6.4-0.6c2.6,0.1,5.1,0.2,7.6,0.9c1.2,0.3,2.3,0.7,3.4,1.2c1.5,0.6,3,1.3,4.4,2.2c3.6,2.1,6.7,5,9.1,8.8
			c1.1,1.7,2.1,3.4,2.9,5.1c0.8,1.7,1.5,3.4,2.1,5.2c0.2,0.7,0.5,1.4,0.7,2.1c0.5,1.7,1,3.4,1.4,5.1c0.3,1.4,0.6,2.7,0.9,4.1
			c0.1,0.3,0.1,0.7,0.2,1C362.3,192.9,362.8,196.5,362.9,200.1z"/>
		<g>
			<path class="st154" d="M358.6,177.1c-1.6-0.4-3.2-0.8-4.8-1.2c-8.1-2.2-16.2-4.5-24.3-6.7c-0.7-0.2-1.2-0.1-1.8,0.3
				c-9.7,6.1-19.9,11.1-30.5,15.1c0.5-1.8,1-3.5,1.6-5.3c6.4-2.6,12.6-5.6,18.7-8.9c1.5-0.8,3-1.7,4.6-2.6c0.2-0.1,0.5-0.3,0.8-0.5
				c-0.4-0.1-0.7-0.2-1-0.3c-3.6-1.2-7.3-2.4-10.9-3.7c-0.8-0.3-1.5-0.6-2.2-0.9c1.2-1.3,2.5-2.4,3.9-3.4c0,0,0,0,0,0
				c1.9,0.7,3.9,1.4,5.8,2c3,1,6,1.8,9,2.8c0.6,0.2,1,0.1,1.5-0.2c3.7-2.4,7.4-4.9,11-7.5c1.5,0.6,3,1.3,4.4,2.2
				c-3.3,2.3-6.6,4.7-9.9,7c-0.1,0.1-0.3,0.2-0.5,0.4c0.3,0.1,0.5,0.2,0.8,0.2c7.2,2.1,14.4,4.2,21.6,6.2
				C357.3,173.6,358,175.3,358.6,177.1z"/>
			<path class="st154" d="M350.5,202.4c4.1,0.5,8.2,1,12.3,1.6c0,1.2-0.1,2.3-0.2,3.4c-0.6,0-1.1-0.1-1.7-0.1
				c-4.2-0.4-8.3-0.9-12.5-1.4c-6.9-0.7-13.7-1.5-20.6-2.7c-1.7-0.3-3.3-0.2-4.9,0.4c-4.4,1.4-8.9,2.7-13.4,3.6
				c-5,1.1-10,1.9-15.2,2.2c0-1.4-0.1-2.8,0-4.2c3.3-0.3,6.5-0.7,9.7-1.3c3.8-0.7,7.6-1.6,11.4-2.7c0.1,0,0.2-0.1,0.4-0.2
				c-0.4-0.1-0.7-0.2-1-0.2c-5.8-1.2-11.5-2.5-17-4.6c-0.9-0.3-1.9-0.7-2.8-1.1c0.1-1.1,0.3-2.2,0.5-3.3c0.6,0.2,1.2,0.4,1.8,0.6
				c6.1,2.1,12.4,3.5,18.8,4.8c2.3,0.5,4.6,0.9,6.9,1.4c0.5,0.1,1,0.1,1.6-0.1c8.9-2.9,17.7-5.7,26.2-9.6c3.3-1.5,6.6-3,9.7-4.7
				c0.3,1.4,0.6,2.7,0.9,4.1c-0.4,0.2-0.8,0.4-1.2,0.6c-6,3.2-12.1,6-18.4,8.3c-2.4,0.9-4.8,1.7-7.2,2.5c-0.3,0.1-0.6,0.2-0.9,0.3
				c0,0,0,0.1,0,0.1c0.2,0.1,0.5,0.1,0.7,0.1C339.9,201.1,345.2,201.7,350.5,202.4z"/>
			<path class="st154" d="M338.8,229.2l0,0.1c0.4,0.1,0.7,0.2,1.1,0.2c4.2,0.6,8.5,1.2,12.7,1.7c1.2,0.1,2.4,0.3,3.6,0.4
				c-0.7,1.3-1.4,2.5-2.2,3.7c-1.4-0.1-2.8-0.2-4.2-0.4c-6.1-0.6-12.1-1.6-18.1-2.8c-0.4-0.1-0.8,0-1.2,0.1
				c-7.5,2.8-15,5.2-22.6,7.5c-0.2,0.1-0.4,0.1-0.7,0.2c-0.3-0.3-0.6-0.5-1-0.8c-0.8-0.7-1.5-1.5-2.2-2.3c6.4-1.9,12.8-4,19.1-6.2
				c0.2-0.1,0.5-0.2,0.9-0.3c-0.6-0.2-0.9-0.3-1.3-0.4c-9.1-2.3-17.9-5.2-26.6-8.6c-0.4-1.4-0.7-2.8-0.9-4.3c0,0,0-0.1,0-0.1
				c8.8,3.4,17.8,6.2,26.9,8.6c2.7,0.7,5.5,1.4,8.2,2c0.4,0.1,0.8,0.1,1.2,0c7.8-2.9,15.7-5.7,23.3-9.1c0.9-0.4,1.8-0.7,2.6-1.2
				c1.4-0.7,2.8-1.2,4.2-1.7c-0.3,1.5-0.6,2.9-1,4.4c-5.1,2.6-10.5,4.8-15.9,6.8c-1.7,0.7-3.4,1.3-5.2,2
				C339.3,229,339.1,229.1,338.8,229.2z"/>
		</g>
	</g>
</g>
<g>
	<path class="st155" d="M132.8,273.3c0.1-0.3,0.3-0.5,0.4-0.8c1.4-3.6,3.8-6.2,6.9-8.4c2.6-1.9,5.6-3.2,8.8-3.6c2-0.2,4-0.1,6,0.6
		c5.3,1.7,8.9,5.2,10.9,10.3c1.2,2.9,1.8,5.9,2,9c0.3,4.1,0,8.1-0.9,12.1c-1.8,8.1-6.3,14.3-13.3,18.7c-2.8,1.8-6,2.8-9.3,3.4
		c-3.3,0.6-6.6,0.5-9.9,0.2c-2.4-0.2-4.8-0.5-7.2-1c-8.7-1.9-14.8-7-17.9-15.3c-2.6-7.1-1.4-13.7,3.1-19.8c2.3-3.1,5.6-4.9,9.2-6
		c1.5-0.4,3.1-0.7,4.6-0.9C128.7,271.7,130,272,132.8,273.3z"/>
	<path class="st156" d="M127.5,276.2c-0.6,0.2-1,0.4-1.5,0.6c-1,0.4-2,0.7-3.1,0.6c-0.7-0.1-1.4-0.2-1.9-0.6c-1-0.7-1.1-1.8-0.2-2.6
		c0.3-0.3,0.6-0.5,0.9-0.7c0.9-0.7,1.7-1.5,2.5-2.2c1-0.9,2.1-1.5,3.3-2c1.6-0.7,3.2-1.5,4.8-2.2c0.6-0.3,1.2-0.7,1.9-1.1
		c1.2-0.6,2.4-1,3.8-1c0.5,0,1,0,1.4,0.1c1.1,0.3,1.3,1.1,0.7,2.1c-0.4,0.6-0.9,1.3-1.3,1.9c-0.2,0.2-0.3,0.5-0.5,0.8
		c0.3,0.2,0.6,0.4,0.9,0.6c0.6,0.4,1.1,0.8,1.6,1.2c0.8,0.8,0.7,1.7-0.4,2.1c-1.9,0.8-3.9,1.7-6,1.9c-1.1,0.1-1.8,0.6-2.4,1.5
		c-0.3,0.5-0.6,1-0.9,1.4c-0.7,1-1.6,1-2.3,0c-0.2-0.4-0.4-0.8-0.6-1.2C127.9,277,127.8,276.6,127.5,276.2z"/>
</g>
<g>
	<path class="st81" d="M331.2,367.2c-7.9,0-14.5-3-20.2-8.4c-4.3-4.1-6.9-9.2-7.9-15c-0.8-4.1-0.4-8.2,0.8-12.2
		c1.3-4.3,3-8.3,5.1-12.2c0.9-1.7,1.9-3.5,2.9-5.2c1.7-2.9,3.1-5.8,4.5-8.8c0.9-2,1.3-4.2,1.5-6.3c0.3-3.7,0.5-7.3,1.3-11
		c0.8-3.9,2.5-7.4,4.9-10.6c1.4-1.8,3.1-3.3,5.2-4.2c3.8-1.7,7.4-1.4,10.8,0.9c1.9,1.3,3.4,2.9,4.5,4.9c1.7,2.9,3,6.1,3.8,9.4
		c0.9,3.4,1.6,6.7,2.2,10.1c0.8,4.1,2.1,8,4.1,11.7c1.9,3.4,3.7,6.8,5.6,10.2c1.9,3.4,3.1,7,3.8,10.7c0.9,5.2,0.5,10.3-1.3,15.3
		c-2.8,7.6-7.8,13-15,16.6c-3.4,1.7-7.1,2.9-10.8,3.5c-1.2,0.2-2.4,0.3-3.6,0.5C332.7,367.2,332,367.2,331.2,367.2z"/>
	<path class="st157" d="M357.5,335.5c0.1,6-1.5,11.5-4.7,16.5c-2.6,4-6.3,6.6-10.8,8.1c-5.8,1.9-11.5,1.7-17.2-0.7
		c-1.5-0.6-2.8-1.5-4.1-2.5c-3.8-2.9-6.9-6.4-9.1-10.6c-1.9-3.5-2.6-7.3-2.2-11.3c0.4-4.8,1.8-9.2,4.1-13.4c1.1-1.9,2.2-3.9,3.3-5.8
		c1.9-3.4,3.6-6.8,4.7-10.6c0.7-2.4,0.9-4.9,1-7.3c0.3-4.2,0.7-8.3,1.9-12.4c0.8-2.6,2-4.9,3.9-6.8c0.6-0.6,1.3-1.2,2-1.7
		c1.9-1.2,3.9-1.2,5.9-0.2c1.3,0.7,2.3,1.7,3.1,2.9c1.1,1.5,1.8,3.2,2.5,5c1.2,3,1.9,6,2.4,9.2c0.5,2.9,0.8,5.8,1.3,8.6
		c0.6,3.8,1.9,7.3,4,10.5c1.8,2.6,3.5,5.4,4.8,8.3c1.9,4.1,3,8.4,3,13C357.5,334.8,357.5,335.1,357.5,335.5z"/>
	<circle class="st63" cx="333.6" cy="336.2" r="15.1"/>
</g>
<g>
	<path class="st80" d="M194,126c-2.1-0.7-4.2-1.3-6.2-2.2c-3.8-1.6-7.2-3.9-10.3-6.6c-3.1-2.7-5.8-5.8-8.6-8.8
		c-9.6-10.7-15.5-23.4-19.6-37.1c-0.1-0.3-0.1-0.5-0.2-0.8c-0.5-2.1,0.2-3.4,2.2-4.2c1.4-0.5,2.8-0.6,4.2-0.7c0.3,0,0.6,0,0.9,0
		c1,0,2,0,2.9,0c6.8,0,13.6-0.1,20.4,0c6.1,0,12.2,0.2,18.2,0.2v0.1c5.4,0,10.9,0,16.3,0c6.1,0,12.1,0.3,18.2,0.2
		c4.7,0,9.4-0.3,14.2-0.5c2.5-0.1,4.9-0.2,7.4-0.4c3-0.1,6.1-0.4,9.1-0.4c0.2,0,0.4,0,0.6,0c1.2,0,2.5,0,3.7,0.1
		c0.8,0,1.6,0.1,2.4,0.1c1.6,0.1,2.5,0.8,2.6,2.3c0.1,1.6,0.1,3.3-0.1,4.9c-0.6,4.4-2.1,8.5-3.9,12.6c-7.5,17.8-20.1,30.5-37.7,38.4
		c-6.4,2.9-13.3,4.4-20.3,4.9C204.9,128.6,199.4,127.9,194,126z"/>
	<path class="st1" d="M195.4,118.1c-7.2-1.7-13.2-5.4-18.5-10.6c-4.2-4.1-7.6-8.7-10.5-13.9c-4.2-7.7-7.5-15.8-10-24.2
		c-0.3-1.3-0.7-2.5-1-3.8c0.3,0,0.6,0,0.9,0c1,0,2,0,2.9,0c6.8,0,13.6-0.1,20.4,0c6.1,0,12.2,0.2,18.2,0.2v0.1c5.4,0,10.9,0,16.3,0
		c6.1,0,12.1,0.3,18.2,0.2c4.7,0,9.4-0.3,14.2-0.5c2.5-0.1,4.9-0.2,7.4-0.4c3-0.1,6.1-0.4,9.1-0.4c0.2,0,0.4,0,0.6,0
		c1.2,0,2.5,0,3.7,0.1c-0.3,2.5-0.8,5-1.8,7.4c-4.4,11.5-10.5,22-18.6,31.3c-7.6,8.6-17.2,13.7-28.6,15.5
		C210.8,120.3,203.1,119.9,195.4,118.1z"/>
	<path class="st14" d="M196.4,113.5c-6.7-1.6-12.4-5.1-17.3-10c-3.9-3.9-7.1-8.2-9.8-13c-4-7.2-7-14.8-9.3-22.7
		c-0.2-0.7-0.4-1.5-0.6-2.2c6.8,0,13.6-0.1,20.4,0c6.1,0,12.2,0.2,18.2,0.2v0.1c5.4,0,10.9,0,16.3,0c6.1,0,12.1,0.3,18.2,0.2
		c4.7,0,9.4-0.3,14.2-0.5c2.5-0.1,4.9-0.2,7.4-0.4c3-0.1,6.1-0.4,9.1-0.4c0.2,0,0.4,0,0.6,0c-0.3,2-0.8,3.9-1.5,5.7
		c-4.2,10.7-9.8,20.6-17.4,29.3c-7.1,8.1-16.1,12.9-26.8,14.6C210.8,115.5,203.6,115.1,196.4,113.5z"/>
	<g>
		<ellipse transform="matrix(0.9737 -0.2277 0.2277 0.9737 -11.6079 53.0823)" class="st53" cx="224.3" cy="76.9" rx="2" ry="3.6"/>
		<ellipse transform="matrix(0.2512 -0.9679 0.9679 0.2512 79.4194 256.3859)" class="st53" cx="205.4" cy="76.9" rx="3.6" ry="2"/>
		<ellipse class="st53" cx="214.4" cy="76.9" rx="2" ry="3.6"/>
	</g>
</g>
<g>
	<path class="st7" d="M204.1,236.3c0,0.4-0.1,0.8-0.2,1.2c-0.3,1.8-0.6,3.7-1.1,5.5c-0.5,1.8-1,3.7-1.6,5.5c-0.6,1.7-1.3,3.4-2.2,5
		c-1.3,2.2-3.1,4-5.4,5.2c-1.4,0.7-2.9,1.1-4.5,1.1c-1.1,0-2.1-0.3-3.2-0.6c-2-0.6-3.6-1.7-5.2-3.1c-2.7-2.4-4.8-5.4-6.2-8.7
		c-0.9-2-1.6-4.1-2.2-6.2c-0.4-1.3-0.6-2.7-0.7-4.1c0-0.2,0-0.4,0-0.6c0-0.8-0.1-1.7,0-2.5c0.2-3,1.4-5.5,3.8-7.4
		c1.8-1.4,3.8-2.2,6-2.7c1.4-0.3,2.7-0.4,4.1-0.5c1.2-0.1,2.5-0.1,3.9-0.2c1.3,0.1,2.7,0.1,4.1,0.3c1,0.1,2,0.2,3.1,0.4
		c1.4,0.2,2.7,0.7,3.9,1.4c1.2,0.7,2.1,1.6,2.7,2.9c0.1,0.2,0.2,0.4,0.2,0.6c0.3,1.1,0.6,2.1,0.7,3.2
		C204.3,233.3,204.3,234.8,204.1,236.3z"/>
	<path class="st80" d="M204.1,236.3c0,0.4-0.1,0.8-0.2,1.2c-0.7-0.4-1.4-0.8-2-1.3c-0.9-0.8-1.9-1.6-2.7-2.5c-1.8-1.8-3.8-3.2-6-4.2
		c-0.1,0-0.2-0.1-0.3-0.1c0.1,0.3,0.1,0.6,0.1,0.9c0,0.8,0.1,1.6,0.1,2.3c0,0.2,0,0.5,0,0.7c0,0.1,0,0.2,0,0.3
		c-0.1,0.4-0.4,0.6-0.8,0.4c-0.2-0.1-0.3-0.2-0.5-0.3c-1.3-1.1-2.5-2.2-3.3-3.6c-0.2-0.3-0.5-0.7-0.7-1c-0.1-0.1-0.2-0.2-0.3-0.3
		c-0.1,0.1-0.3,0.2-0.4,0.3c-0.2,0.3-0.5,0.6-0.7,0.9c-0.3,0.5-0.7,0.9-1,1.4c-0.1,0.2-0.3,0.4-0.4,0.5c-0.4,0.4-1,0.4-1.4-0.1
		c-0.2-0.2-0.4-0.5-0.4-0.8c-0.2-0.5-0.3-1.1-0.4-1.7c0-0.1,0-0.2-0.1-0.3c-0.1,0.2-0.1,0.2-0.2,0.3c-0.9,1.9-1.5,3.9-1.7,6
		c0,0.5-0.1,0.9-0.2,1.4c0,0.2-0.1,0.4-0.2,0.6c-0.2,0.4-0.7,0.5-1,0.2c-0.2-0.2-0.4-0.4-0.6-0.6c-0.3-0.4-0.5-0.9-0.7-1.4
		c-0.4-1-0.7-2.1-0.9-3.2c-0.1-0.4-0.1-0.9-0.1-1.3c0-0.4,0-0.7,0-1.1c0-0.2,0-0.3-0.1-0.6c-0.2,0.1-0.3,0.1-0.4,0.2
		c-0.4,0.2-0.7,0.5-1.1,0.8c-0.4,0.4-0.7,0.7-1,1.2c-1.2,1.5-2.2,3.1-2.9,4.8c0-0.8-0.1-1.7,0-2.5c0.2-3,1.4-5.5,3.8-7.4
		c1.8-1.4,3.8-2.2,6-2.7c1.4-0.3,2.7-0.4,4.1-0.5c1.2-0.1,2.5-0.1,3.9-0.2c1.3,0.1,2.7,0.1,4.1,0.3c1,0.1,2,0.2,3.1,0.4
		c1.4,0.2,2.7,0.7,3.9,1.4c1.2,0.7,2.1,1.6,2.7,2.9c0.1,0.2,0.2,0.4,0.2,0.6c0.3,1.1,0.6,2.1,0.7,3.2
		C204.3,233.3,204.3,234.8,204.1,236.3z"/>
	<g>
		<ellipse class="st158" cx="181.8" cy="240.5" rx="0.7" ry="1.3"/>
		<ellipse class="st158" cx="175.4" cy="240.5" rx="0.7" ry="1.3"/>
		<ellipse class="st158" cx="188.3" cy="240.5" rx="0.7" ry="1.3"/>
		<ellipse class="st158" cx="194.3" cy="240.5" rx="0.7" ry="1.3"/>
		<ellipse class="st158" cx="200.5" cy="240.5" rx="0.7" ry="1.3"/>
		<ellipse class="st158" cx="185" cy="246.4" rx="0.7" ry="1.3"/>
		<ellipse class="st158" cx="179.1" cy="246.4" rx="0.7" ry="1.3"/>
		<ellipse class="st158" cx="191.5" cy="246.4" rx="0.7" ry="1.3"/>
		<ellipse class="st158" cx="197.4" cy="246.4" rx="0.7" ry="1.3"/>
		<ellipse class="st158" cx="188.5" cy="251.5" rx="0.7" ry="1.3"/>
		<ellipse class="st158" cx="182.6" cy="251.5" rx="0.7" ry="1.3"/>
		<ellipse class="st158" cx="195" cy="251.5" rx="0.7" ry="1.3"/>
	</g>
</g>
<g>
	<path class="st130" d="M120.3,115.5c-1.4-0.1-2.8-0.4-4.1-0.8c-3.4-1.1-5.7-3.3-7.1-6.5c-0.8-1.8-1.2-3.8-1-5.8
		c0-0.4,0.1-0.7,0.2-1c0.2-0.4,0.5-0.5,0.9-0.4c0,0,0.1,0,0.1,0.1c1.6,0.9,3.4,1.4,5.2,2c2.1,0.7,4.1,1.7,5.7,3.3
		c0.5,0.5,1,1.1,1.4,1.7c0.9,1.4,1.6,2.9,1.9,4.5c0.1,0.6,0.1,1.1,0.1,1.7c0,0.8-0.3,1-1.1,1.1C121.7,115.5,121,115.5,120.3,115.5z"
		/>
	<path class="st63" d="M111.9,137.6c0.1-2.7,0.9-5.3,1.8-7.8c1.1-3,2.3-6,3.5-9c2.1-5.2,5.5-9.4,9.6-13.1c1.2-1.1,2.5-2.2,3.8-3.3
		c1.5-1.3,4.2-1,5.4,0.7c0.4,0.6,0.4,1.2,0,1.8c-0.3,0.4-0.7,0.8-1.1,1.2c-8.1,6.8-12.9,15.6-15.5,25.7c-0.5,2.1-1.1,4.2-1.5,6.4
		c-0.2,1.3-1,1.9-2.2,2.2c-2.8,0.6-3.8-0.2-3.8-3.1C111.8,138.7,111.8,138.1,111.9,137.6z"/>
	<path class="st159" d="M156.2,161.7c0-4.8-2.4-9.1-6.1-11.6c1.8-2.3,2.8-5.3,2.8-8.4c0-7.7-6.3-14-14-14c-5.8,0-10.8,3.5-12.9,8.6
		c-1.3-0.4-2.6-0.6-4-0.6c-2.4,0-4.6,0.6-6.6,1.7c-2.6-3.3-6.5-5.4-11-5.4c-3.2,0-6.1,1.1-8.5,2.9c-1.7-0.7-3.5-1.1-5.5-1.1
		c-5.7,0-10.7,3.5-12.8,8.4c-6,1.6-10.4,7-10.4,13.5c0,5.9,3.7,11,8.9,13c-1.2,2.1-1.9,4.4-1.9,7c0,7.7,6.3,14,14,14
		c0.1,0,0.1,0,0.2,0c-0.1,0.8-0.2,1.5-0.2,2.3c0,7.7,6.3,14,14,14c0.5,0,1,0,1.5-0.1c-0.9,1.9-1.5,4-1.5,6.2c0,7.7,6.3,14,14,14
		s14-6.3,14-14c0-1.5-0.3-3-0.7-4.4c5.4-1.5,9.5-6.1,10.2-11.8c6-1.6,10.4-7,10.4-13.5c0-2.8-0.9-5.5-2.3-7.7
		C152.7,172.5,156.2,167.5,156.2,161.7z"/>
	<g>
		<circle class="st160" cx="135.4" cy="148.9" r="12.5"/>
		<circle class="st160" cx="94.4" cy="153.7" r="12.5"/>
		<circle class="st160" cx="129.8" cy="180.6" r="12.5"/>
		<circle class="st160" cx="103.2" cy="188" r="12.5"/>
		<circle class="st160" cx="117.3" cy="211.7" r="7.1"/>
		<circle class="st160" cx="115.7" cy="161.4" r="7.1"/>
	</g>
</g>
</svg>
